<?xml version="1.0" standalone="no"?>
<!DOCTYPE svg PUBLIC "-//W3C//DTD SVG 20010904//EN"
 "http://www.w3.org/TR/2001/REC-SVG-20010904/DTD/svg10.dtd">
<svg version="1.0" xmlns="http://www.w3.org/2000/svg"
 width="512.000000pt" height="512.000000pt" viewBox="0 0 512.000000 512.000000"
 preserveAspectRatio="xMidYMid meet">
<metadata>
Created by potrace 1.14, written by Peter Selinger 2001-2017
</metadata>
<g transform="translate(0.000000,512.000000) scale(0.100000,-0.100000)"
fill="#000000" stroke="none">
<path d="M2340 5113 c-530 -54 -987 -239 -1387 -562 -127 -102 -339 -320 -431
-443 -295 -393 -466 -840 -512 -1333 -26 -279 -1 -561 75 -861 81 -317 232
-628 437 -902 93 -124 304 -341 433 -445 443 -357 961 -548 1530 -564 323 -9
595 30 889 128 380 127 708 330 997 618 415 415 657 909 734 1494 31 242 17
595 -35 844 -224 1074 -1120 1890 -2219 2018 -113 13 -414 18 -511 8z m810
-2316 c320 -555 580 -1010 578 -1013 -3 -2 -532 -3 -1177 -2 l-1172 3 588
1017 c323 560 590 1015 594 1010 4 -4 269 -461 589 -1015z"/>
</g>
</svg>
